<?xml version="1.0" standalone="no"?>
<!DOCTYPE svg PUBLIC "-//W3C//DTD SVG 20010904//EN"
 "http://www.w3.org/TR/2001/REC-SVG-20010904/DTD/svg10.dtd">
<svg version="1.0" xmlns="http://www.w3.org/2000/svg"
 width="363.000000pt" height="410.000000pt" viewBox="0 0 363.000000 410.000000"
 preserveAspectRatio="xMidYMid meet">

<g transform="translate(0.000000,410.000000) scale(0.100000,-0.100000)"

fill="#9FF5F2"
stroke="none">
<path d="M802 4009 c-266 -47 -501 -222 -622 -463 -63 -126 -83 -216 -84 -376
-1 -145 8 -193 56 -318 63 -164 74 -176 994 -1093 522 -521 871 -877 895 -913
49 -73 70 -139 76 -241 23 -376 -368 -622 -711 -448 -36 18 -119 94 -283 256
-128 127 -236 239 -239 250 -4 13 9 49 37 105 l44 85 0 111 c0 106 -2 115 -33
179 -130 263 -474 324 -676 120 -129 -131 -162 -328 -80 -488 97 -189 332
-280 527 -204 26 11 55 19 64 19 9 0 125 -107 257 -238 328 -325 376 -352 617
-352 145 0 218 17 305 73 189 119 286 294 285 513 0 107 -18 178 -69 279 -33
64 -107 142 -927 965 -980 983 -947 946 -1001 1125 -37 123 -39 280 -6 405 67
248 257 442 512 522 63 19 96 23 210 23 154 0 234 -19 350 -82 91 -49 129 -82
351 -300 139 -137 203 -193 219 -193 16 0 87 64 249 223 224 221 227 223 331
274 138 68 228 87 369 80 205 -10 354 -77 496 -221 142 -145 203 -284 212
-486 11 -236 -59 -403 -251 -597 l-91 -93 -192 0 -191 0 -92 179 c-50 99 -98
182 -106 185 -9 3 -24 1 -35 -4 -11 -7 -77 -127 -158 -288 -77 -153 -146 -284
-154 -291 -9 -7 -26 -11 -39 -9 -18 2 -35 26 -79 112 -31 60 -63 113 -72 118
-30 16 -56 -11 -106 -110 -56 -111 -70 -127 -106 -118 -21 5 -47 51 -169 295
-80 159 -152 291 -160 294 -9 4 -23 4 -32 0 -8 -3 -51 -78 -96 -167 -44 -88
-87 -169 -96 -178 -13 -16 -35 -18 -176 -18 -132 0 -166 -3 -184 -16 -32 -22
-27 -74 8 -91 36 -18 379 -18 404 0 9 7 41 58 70 112 51 97 54 100 87 100 l34
0 146 -290 c183 -363 174 -358 274 -166 49 94 51 96 85 96 34 0 36 -2 93 -112
49 -95 61 -113 81 -113 13 0 30 7 37 16 8 9 77 141 154 293 136 267 141 276
171 279 31 3 33 0 88 -107 51 -100 59 -111 89 -116 17 -4 130 -5 249 -3 l218
3 86 85 c158 155 259 314 299 469 13 52 16 101 13 245 -3 167 -6 187 -31 256
-104 286 -356 501 -651 557 -121 23 -306 13 -410 -21 -187 -63 -246 -104 -482
-338 l-190 -189 -168 171 c-232 237 -323 300 -513 356 -99 29 -286 40 -381 23z
m-114 -2769 c65 -33 109 -76 144 -143 19 -35 23 -58 23 -132 0 -102 -13 -136
-84 -216 -107 -121 -316 -123 -436 -4 -76 77 -111 197 -85 292 41 146 154 232
306 233 59 0 81 -5 132 -30z"/>
</g>
</svg>
